<?xml version="1.0" standalone="no"?>
<!DOCTYPE svg PUBLIC "-//W3C//DTD SVG 20010904//EN"
 "http://www.w3.org/TR/2001/REC-SVG-20010904/DTD/svg10.dtd">
<svg version="1.0" xmlns="http://www.w3.org/2000/svg"
 width="300.000000pt" height="259.000000pt" viewBox="0 0 300.000000 259.000000"
 preserveAspectRatio="xMidYMid meet">
<metadata>
Created by potrace 1.10, written by Peter Selinger 2001-2011
</metadata>
<g transform="translate(0.000000,259.000000) scale(0.100000,-0.100000)"
fill="#ff0000" stroke="none">
<path d="M1214 1866 c-17 -7 -47 -33 -66 -57 -135 -166 -123 -369 22 -394 96
-16 186 31 229 120 13 28 28 58 33 67 30 63 -8 78 -140 56 -100 -17 -122 -28
-122 -63 0 -31 22 -37 71 -20 49 18 99 19 99 4 0 -6 -17 -29 -39 -50 -34 -35
-44 -39 -87 -39 -72 0 -79 8 -79 87 1 75 21 125 76 188 35 40 67 45 126 20 28
-12 39 -12 50 -3 58 47 -92 121 -173 84z"/>
<path d="M1492 1868 c-5 -8 -11 -105 -13 -228 l-4 -214 27 -15 c24 -14 36 -14
120 1 124 22 148 32 148 62 0 39 -22 50 -72 33 -24 -8 -69 -18 -101 -22 l-59
-7 6 64 c15 165 17 297 7 317 -13 23 -43 28 -59 9z"/>
</g>
</svg>
