<?xml version="1.0" standalone="no"?>
<!DOCTYPE svg PUBLIC "-//W3C//DTD SVG 20010904//EN"
 "http://www.w3.org/TR/2001/REC-SVG-20010904/DTD/svg10.dtd">
<svg version="1.0" xmlns="http://www.w3.org/2000/svg"
 width="400.000000pt" height="400.000000pt" viewBox="0 0 400.000000 400.000000"
 preserveAspectRatio="xMidYMid meet">
<metadata>
Created by potrace 1.14, written by Peter Selinger 2001-2017
</metadata>
<g transform="translate(0.000000,400.000000) scale(0.100000,-0.100000)"
fill="#000000" stroke="none">
<path d="M2050 3182 c-34 -147 -64 -269 -66 -271 -2 -2 -50 17 -107 43 -156
70 -276 97 -422 98 -142 1 -221 -16 -343 -73 -113 -52 -190 -109 -292 -215
-139 -145 -224 -277 -276 -429 -38 -114 -45 -286 -16 -403 91 -360 445 -686
915 -841 63 -21 97 -38 97 -47 0 -8 -10 -53 -21 -100 -12 -46 -20 -87 -17 -89
3 -4 2168 -13 2168 -9 0 0 -116 78 -257 171 l-258 171 -310 12 c-170 6 -318
14 -328 16 -14 5 -10 14 28 57 25 28 62 83 82 122 l38 70 -3 134 c-1 73 -7
141 -12 150 -9 18 -40 26 -305 82 -77 16 -147 32 -156 35 -14 4 -5 33 62 186
44 100 78 187 75 194 -3 8 50 26 159 54 l164 43 -39 46 c-21 25 -61 68 -89 96
-28 27 -51 53 -51 59 0 12 230 538 243 554 5 7 8 14 6 16 -4 3 -550 306 -585
324 -20 11 -22 3 -84 -256z m-760 -513 c70 -19 198 -76 230 -103 8 -7 51 -35
95 -63 117 -72 230 -163 228 -182 -1 -8 -21 -97 -44 -197 -36 -157 -44 -181
-58 -173 -14 7 -377 79 -402 79 -4 0 12 -44 37 -97 26 -54 67 -144 93 -200 25
-57 50 -102 56 -101 13 3 138 -12 146 -17 3 -3 -4 -46 -15 -97 l-22 -93 -44 3
c-62 5 -184 30 -255 54 -92 30 -183 85 -253 152 -153 147 -211 330 -199 636 6
159 19 223 60 293 68 116 185 151 347 106z m884 -1120 c59 -6 126 -16 149 -23
l42 -12 -85 -21 c-98 -25 -281 -56 -288 -49 -10 11 42 116 58 116 9 0 65 -5
124 -11z"/>
<path d="M1195 2501 c-155 -72 -151 -289 7 -356 160 -66 322 102 249 260 -46
99 -158 141 -256 96z"/>
</g>
</svg>
