<?xml version="1.0" standalone="no"?>
<!DOCTYPE svg PUBLIC "-//W3C//DTD SVG 20010904//EN"
 "http://www.w3.org/TR/2001/REC-SVG-20010904/DTD/svg10.dtd">
<svg version="1.0" xmlns="http://www.w3.org/2000/svg"
 width="900.000000pt" height="777.000000pt" viewBox="0 0 900.000000 777.000000"
 preserveAspectRatio="xMidYMid meet">
<metadata>
Created by potrace 1.10, written by Peter Selinger 2001-2011
</metadata>
<g transform="translate(0.000000,777.000000) scale(0.100000,-0.100000)"
fill="#ff0000" stroke="none">
<path d="M3690 5608 c-35 -12 -71 -27 -78 -35 -7 -7 -18 -13 -24 -13 -20 0
-193 -184 -233 -248 -22 -34 -50 -78 -61 -96 -12 -19 -25 -45 -29 -57 -4 -13
-18 -46 -31 -74 -43 -95 -83 -280 -84 -385 0 -72 24 -193 49 -251 44 -98 137
-178 234 -200 67 -15 285 -23 300 -11 7 5 33 13 59 16 86 13 195 80 291 180
81 85 124 161 164 291 8 28 26 64 39 81 31 42 38 76 25 116 -19 57 -53 68
-205 68 -73 0 -136 -4 -141 -9 -6 -5 -46 -12 -90 -15 -124 -9 -138 -11 -170
-22 -16 -6 -55 -19 -85 -30 -54 -18 -64 -23 -100 -56 -48 -43 -33 -133 25
-161 39 -19 71 -22 79 -8 4 5 25 12 49 16 23 4 47 10 52 14 6 4 37 13 70 20
33 7 83 17 111 23 61 13 104 5 104 -19 0 -29 -61 -127 -114 -180 -28 -29 -54
-53 -59 -53 -4 0 -26 -12 -50 -27 -40 -27 -47 -28 -173 -28 -126 0 -132 1
-166 27 -60 46 -94 198 -69 316 6 28 16 76 22 105 29 141 196 393 316 475 24
17 46 22 98 22 67 0 97 -9 208 -66 27 -13 59 -24 70 -24 42 1 97 66 97 113 0
34 -56 93 -110 118 -19 8 -51 23 -70 32 -113 51 -228 64 -320 35z"/>
<path d="M4501 5618 c-13 -7 -33 -25 -43 -39 -18 -24 -20 -50 -24 -345 -3
-175 -7 -341 -9 -369 -3 -27 -10 -159 -16 -293 -13 -287 -11 -295 80 -343 49
-27 63 -29 156 -29 76 0 106 4 114 14 7 9 39 16 79 19 100 8 234 27 257 37 11
4 53 18 92 31 78 24 104 45 121 97 14 40 -3 83 -47 119 -27 23 -89 31 -107 14
-9 -10 -106 -39 -159 -48 -16 -3 -35 -9 -41 -14 -5 -4 -48 -11 -95 -15 -46 -4
-90 -12 -98 -18 -15 -12 -125 -15 -137 -4 -4 4 -7 20 -7 35 0 36 20 423 33
618 6 83 10 220 10 306 l0 156 -32 36 c-37 41 -88 55 -127 35z"/>
</g>
</svg>
